<mxfile host="app.diagrams.net" modified="2023-12-27T17:18:24.453Z" agent="Mozilla/5.0 (Windows NT 10.0; Win64; x64) AppleWebKit/537.36 (KHTML, like Gecko) Chrome/119.0.0.0 Safari/537.36 OPR/105.0.0.0" version="22.1.14" etag="D3-KPx5vsj8K5hv0ZjCL" type="github">
  <diagram name="Page-1" id="Mnt6tV949xTVKfmeOObJ">
    <mxGraphModel>
      <root>
        <mxCell id="0" />
        <mxCell id="1" parent="0" />
      </root>
    </mxGraphModel>
  </diagram>
</mxfile>
